<svg width="512" height="450" viewBox="0 0 512 450" fill="none" xmlns="http://www.w3.org/2000/svg">
<path d="M164.96 300.004H164.984C165.004 300.004 165.024 300 165.043 300H437C440.259 299.999 443.43 298.937 446.032 296.974C448.634 295.012 450.526 292.255 451.422 289.121L511.422 79.121C512.06 76.889 512.171 74.5396 511.746 72.2574C511.322 69.9752 510.374 67.8227 508.977 65.969C507.579 64.1152 505.769 62.6113 503.691 61.5755C501.612 60.5397 499.322 60.0004 497 60H130.367L119.645 11.746C118.904 8.41429 117.049 5.4348 114.387 3.29933C111.724 1.16385 108.413 4.60968e-05 105 0L15 0C6.715 0 0 6.715 0 15C0 23.285 6.715 30 15 30H92.969C94.867 38.55 144.281 260.918 147.125 273.71C131.184 280.64 120 296.536 120 315C120 339.812 140.188 360 165 360H437C445.285 360 452 353.285 452 345C452 336.715 445.285 330 437 330H165C156.73 330 150 323.27 150 315C150 306.742 156.707 300.023 164.96 300.004ZM477.114 90L425.684 270H177.032L137.032 90H477.114ZM150 405C150 429.813 170.188 450 195 450C219.812 450 240 429.812 240 405C240 380.188 219.812 360 195 360C170.188 360 150 380.188 150 405ZM195 390C203.27 390 210 396.73 210 405C210 413.27 203.27 420 195 420C186.73 420 180 413.27 180 405C180 396.73 186.73 390 195 390ZM362 405C362 429.813 382.188 450 407 450C431.812 450 452 429.812 452 405C452 380.188 431.812 360 407 360C382.188 360 362 380.188 362 405ZM407 390C415.27 390 422 396.73 422 405C422 413.27 415.27 420 407 420C398.73 420 392 413.27 392 405C392 396.73 398.73 390 407 390Z" fill="black"/>
</svg>
